<svg baseProfile="full" height="100%" version="1.1" viewBox="25.0,5.0,925.0,1280.0" width="100%" xmlns="http://www.w3.org/2000/svg" xmlns:ev="http://www.w3.org/2001/xml-events" xmlns:xlink="http://www.w3.org/1999/xlink"><defs /><g><line stroke="lightgrey" stroke-dasharray="2" x1="470.0" x2="469.0" y1="15.0" y2="15.0" /><line stroke="lightgrey" stroke-dasharray="2" x1="450.0" x2="469.0" y1="35.0" y2="35.0" /><line stroke="lightgrey" stroke-dasharray="2" x1="430.0" x2="469.0" y1="55.0" y2="55.0" /><line stroke="lightgrey" stroke-dasharray="2" x1="410.0" x2="469.0" y1="75.0" y2="75.0" /><line stroke="lightgrey" stroke-dasharray="2" x1="390.0" x2="469.0" y1="95.0" y2="95.0" /><line stroke="lightgrey" stroke-dasharray="2" x1="370.0" x2="469.0" y1="115.0" y2="115.0" /><line stroke="lightgrey" stroke-dasharray="2" x1="350.0" x2="469.0" y1="135.0" y2="135.0" /><line stroke="lightgrey" stroke-dasharray="2" x1="330.0" x2="469.0" y1="155.0" y2="155.0" /><line stroke="lightgrey" stroke-dasharray="2" x1="470.0" x2="469.0" y1="175.0" y2="175.0" /><line stroke="lightgrey" stroke-dasharray="2" x1="410.0" x2="469.0" y1="195.0" y2="195.0" /><line stroke="lightgrey" stroke-dasharray="2" x1="310.0" x2="469.0" y1="215.0" y2="215.0" /><line stroke="lightgrey" stroke-dasharray="2" x1="470.0" x2="469.0" y1="235.0" y2="235.0" /><line stroke="lightgrey" stroke-dasharray="2" x1="290.0" x2="469.0" y1="255.0" y2="255.0" /><line stroke="lightgrey" stroke-dasharray="2" x1="270.0" x2="469.0" y1="275.0" y2="275.0" /><line stroke="lightgrey" stroke-dasharray="2" x1="250.0" x2="469.0" y1="295.0" y2="295.0" /><line stroke="lightgrey" stroke-dasharray="2" x1="470.0" x2="469.0" y1="315.0" y2="315.0" /><line stroke="lightgrey" stroke-dasharray="2" x1="290.0" x2="469.0" y1="335.0" y2="335.0" /><line stroke="lightgrey" stroke-dasharray="2" x1="230.0" x2="469.0" y1="355.0" y2="355.0" /><line stroke="lightgrey" stroke-dasharray="2" x1="270.0" x2="469.0" y1="375.0" y2="375.0" /><line stroke="lightgrey" stroke-dasharray="2" x1="470.0" x2="469.0" y1="395.0" y2="395.0" /><line stroke="lightgrey" stroke-dasharray="2" x1="210.0" x2="469.0" y1="415.0" y2="415.0" /><line stroke="lightgrey" stroke-dasharray="2" x1="230.0" x2="469.0" y1="435.0" y2="435.0" /><line stroke="lightgrey" stroke-dasharray="2" x1="470.0" x2="469.0" y1="455.0" y2="455.0" /><line stroke="lightgrey" stroke-dasharray="2" x1="210.0" x2="469.0" y1="475.0" y2="475.0" /><line stroke="lightgrey" stroke-dasharray="2" x1="230.0" x2="469.0" y1="495.0" y2="495.0" /><line stroke="lightgrey" stroke-dasharray="2" x1="470.0" x2="469.0" y1="515.0" y2="515.0" /><line stroke="lightgrey" stroke-dasharray="2" x1="370.0" x2="469.0" y1="535.0" y2="535.0" /><line stroke="lightgrey" stroke-dasharray="2" x1="310.0" x2="469.0" y1="555.0" y2="555.0" /><line stroke="lightgrey" stroke-dasharray="2" x1="190.0" x2="469.0" y1="575.0" y2="575.0" /><line stroke="lightgrey" stroke-dasharray="2" x1="230.0" x2="469.0" y1="595.0" y2="595.0" /><line stroke="lightgrey" stroke-dasharray="2" x1="370.0" x2="469.0" y1="615.0" y2="615.0" /><line stroke="lightgrey" stroke-dasharray="2" x1="290.0" x2="469.0" y1="635.0" y2="635.0" /><line stroke="lightgrey" stroke-dasharray="2" x1="170.0" x2="469.0" y1="655.0" y2="655.0" /><line stroke="lightgrey" stroke-dasharray="2" x1="370.0" x2="469.0" y1="675.0" y2="675.0" /><line stroke="lightgrey" stroke-dasharray="2" x1="190.0" x2="469.0" y1="695.0" y2="695.0" /><line stroke="lightgrey" stroke-dasharray="2" x1="150.0" x2="469.0" y1="715.0" y2="715.0" /><line stroke="lightgrey" stroke-dasharray="2" x1="150.0" x2="469.0" y1="735.0" y2="735.0" /><line stroke="lightgrey" stroke-dasharray="2" x1="150.0" x2="469.0" y1="755.0" y2="755.0" /><line stroke="lightgrey" stroke-dasharray="2" x1="150.0" x2="469.0" y1="775.0" y2="775.0" /><line stroke="lightgrey" stroke-dasharray="2" x1="150.0" x2="469.0" y1="795.0" y2="795.0" /><line stroke="lightgrey" stroke-dasharray="2" x1="150.0" x2="469.0" y1="815.0" y2="815.0" /><line stroke="lightgrey" stroke-dasharray="2" x1="370.0" x2="469.0" y1="835.0" y2="835.0" /><line stroke="lightgrey" stroke-dasharray="2" x1="130.0" x2="469.0" y1="855.0" y2="855.0" /><line stroke="lightgrey" stroke-dasharray="2" x1="350.0" x2="469.0" y1="875.0" y2="875.0" /><line stroke="lightgrey" stroke-dasharray="2" x1="110.0" x2="469.0" y1="895.0" y2="895.0" /><line stroke="lightgrey" stroke-dasharray="2" x1="390.0" x2="469.0" y1="915.0" y2="915.0" /><line stroke="lightgrey" stroke-dasharray="2" x1="310.0" x2="469.0" y1="935.0" y2="935.0" /><line stroke="lightgrey" stroke-dasharray="2" x1="150.0" x2="469.0" y1="955.0" y2="955.0" /><line stroke="lightgrey" stroke-dasharray="2" x1="430.0" x2="469.0" y1="975.0" y2="975.0" /><line stroke="lightgrey" stroke-dasharray="2" x1="90.0" x2="469.0" y1="995.0" y2="995.0" /><line stroke="lightgrey" stroke-dasharray="2" x1="70.0" x2="469.0" y1="1015.0" y2="1015.0" /><line stroke="lightgrey" stroke-dasharray="2" x1="50.0" x2="469.0" y1="1035.0" y2="1035.0" /><line stroke="lightgrey" stroke-dasharray="2" x1="350.0" x2="469.0" y1="1055.0" y2="1055.0" /><line stroke="lightgrey" stroke-dasharray="2" x1="130.0" x2="469.0" y1="1075.0" y2="1075.0" /><line stroke="lightgrey" stroke-dasharray="2" x1="110.0" x2="469.0" y1="1095.0" y2="1095.0" /><line stroke="lightgrey" stroke-dasharray="2" x1="210.0" x2="469.0" y1="1115.0" y2="1115.0" /><line stroke="lightgrey" stroke-dasharray="2" x1="310.0" x2="469.0" y1="1135.0" y2="1135.0" /><line stroke="lightgrey" stroke-dasharray="2" x1="90.0" x2="469.0" y1="1155.0" y2="1155.0" /><line stroke="lightgrey" stroke-dasharray="2" x1="210.0" x2="469.0" y1="1175.0" y2="1175.0" /><line stroke="lightgrey" stroke-dasharray="2" x1="210.0" x2="469.0" y1="1195.0" y2="1195.0" /><line stroke="lightgrey" stroke-dasharray="2" x1="410.0" x2="469.0" y1="1215.0" y2="1215.0" /><line stroke="lightgrey" stroke-dasharray="2" x1="210.0" x2="469.0" y1="1235.0" y2="1235.0" /><line stroke="lightgrey" stroke-dasharray="2" x1="250.0" x2="469.0" y1="1255.0" y2="1255.0" /><line stroke="lightgrey" stroke-dasharray="2" x1="410.0" x2="469.0" y1="1275.0" y2="1275.0" /></g><g><line stroke="#c65353" stroke-width="2.0" x1="455.0" x2="455.0" y1="15.0" y2="175.0" /><line stroke="#53c6c6" stroke-width="2.0" x1="395.0" x2="395.0" y1="75.0" y2="195.0" /><line stroke="#d9d98c" stroke-width="2.0" x1="455.0" x2="455.0" y1="175.0" y2="235.0" /><line stroke="#8c8cd9" stroke-width="2.0" x1="455.0" x2="455.0" y1="235.0" y2="315.0" /><line stroke="#d98cd9" stroke-width="2.0" x1="275.0" x2="275.0" y1="255.0" y2="335.0" /><line stroke="#d98c8c" stroke-width="2.0" x1="255.0" x2="255.0" y1="275.0" y2="375.0" /><line stroke="#999933" stroke-width="2.0" x1="455.0" x2="455.0" y1="315.0" y2="395.0" /><line stroke="#339999" stroke-width="2.0" x1="215.0" x2="215.0" y1="355.0" y2="435.0" /><line stroke="#993399" stroke-width="2.0" x1="455.0" x2="455.0" y1="395.0" y2="455.0" /><line stroke="#993333" stroke-width="2.0" x1="195.0" x2="195.0" y1="415.0" y2="475.0" /><line stroke="#c65353" stroke-width="2.0" x1="215.0" x2="215.0" y1="435.0" y2="495.0" /><line stroke="#c6c653" stroke-width="2.0" x1="455.0" x2="455.0" y1="455.0" y2="515.0" /><line stroke="#c653c6" stroke-width="2.0" x1="355.0" x2="355.0" y1="115.0" y2="535.0" /><line stroke="#8cd9d9" stroke-width="2.0" x1="295.0" x2="295.0" y1="215.0" y2="555.0" /><line stroke="#53c6c6" stroke-width="2.0" x1="215.0" x2="215.0" y1="495.0" y2="595.0" /><line stroke="#339933" stroke-width="2.0" x1="275.0" x2="275.0" y1="335.0" y2="580.0" /><line stroke="#c653c6" stroke-width="2.0" x1="355.0" x2="355.0" y1="535.0" y2="615.0" /><line stroke="#8cd98c" stroke-width="2.0" x1="355.0" x2="355.0" y1="615.0" y2="675.0" /><line stroke="#d98c8c" stroke-width="2.0" x1="175.0" x2="175.0" y1="575.0" y2="695.0" /><line stroke="#993333" stroke-width="2.0" x1="135.0" x2="135.0" y1="715.0" y2="735.0" /><line stroke="#999933" stroke-width="2.0" x1="135.0" x2="135.0" y1="735.0" y2="755.0" /><line stroke="#339933" stroke-width="2.0" x1="135.0" x2="135.0" y1="755.0" y2="775.0" /><line stroke="#339999" stroke-width="2.0" x1="135.0" x2="135.0" y1="775.0" y2="795.0" /><line stroke="#d98cd9" stroke-width="2.0" x1="355.0" x2="355.0" y1="675.0" y2="780.0" /><line stroke="#333399" stroke-width="2.0" x1="135.0" x2="135.0" y1="795.0" y2="815.0" /><line stroke="#c65353" stroke-width="2.0" x1="335.0" x2="335.0" y1="135.0" y2="875.0" /><line stroke="#5353c6" stroke-width="2.0" x1="375.0" x2="375.0" y1="95.0" y2="915.0" /><line stroke="#53c653" stroke-width="2.0" x1="415.0" x2="415.0" y1="55.0" y2="900.0" /><line stroke="#c65353" stroke-width="2.0" x1="295.0" x2="295.0" y1="555.0" y2="935.0" /><line stroke="#993399" stroke-width="2.0" x1="135.0" x2="135.0" y1="815.0" y2="955.0" /><line stroke="#c65353" stroke-width="2.0" x1="115.0" x2="115.0" y1="855.0" y2="1040.0" /><line stroke="#c6c653" stroke-width="2.0" x1="335.0" x2="335.0" y1="875.0" y2="1055.0" /><line stroke="#993333" stroke-width="2.0" x1="355.0" x2="355.0" y1="835.0" y2="1040.0" /><line stroke="#53c653" stroke-width="2.0" x1="95.0" x2="95.0" y1="895.0" y2="1095.0" /><line stroke="#53c653" stroke-width="2.0" x1="195.0" x2="195.0" y1="475.0" y2="1115.0" /><line stroke="#53c6c6" stroke-width="2.0" x1="375.0" x2="375.0" y1="915.0" y2="1100.0" /><line stroke="#5353c6" stroke-width="2.0" x1="295.0" x2="295.0" y1="935.0" y2="1135.0" /><line stroke="#8cd98c" stroke-width="2.0" x1="35.0" x2="35.0" y1="1035.0" y2="1140.0" /><line stroke="#d98c8c" stroke-width="2.0" x1="75.0" x2="75.0" y1="995.0" y2="1155.0" /><line stroke="#993333" stroke-width="2.0" x1="235.0" x2="235.0" y1="295.0" y2="1140.0" /><line stroke="#d98c8c" stroke-width="2.0" x1="315.0" x2="315.0" y1="155.0" y2="1140.0" /><line stroke="#d98c8c" stroke-width="2.0" x1="195.0" x2="195.0" y1="1115.0" y2="1175.0" /><line stroke="#339933" stroke-width="2.0" x1="195.0" x2="195.0" y1="1175.0" y2="1195.0" /><line stroke="#8cd98c" stroke-width="2.0" x1="395.0" x2="395.0" y1="195.0" y2="1215.0" /><line stroke="#339999" stroke-width="2.0" x1="195.0" x2="195.0" y1="1195.0" y2="1235.0" /><line stroke="#d9d98c" stroke-width="2.0" x1="55.0" x2="55.0" y1="1015.0" y2="1260.0" /><line stroke="#999933" stroke-width="2.0" x1="75.0" x2="75.0" y1="1155.0" y2="1260.0" /><line stroke="#d98cd9" stroke-width="2.0" x1="95.0" x2="95.0" y1="1095.0" y2="1260.0" /><line stroke="#8c8cd9" stroke-width="2.0" x1="115.0" x2="115.0" y1="1075.0" y2="1260.0" /><line stroke="#c653c6" stroke-width="2.0" x1="135.0" x2="135.0" y1="955.0" y2="1260.0" /><line stroke="#8c8cd9" stroke-width="2.0" x1="155.0" x2="155.0" y1="655.0" y2="1260.0" /><line stroke="#d98c8c" stroke-width="2.0" x1="175.0" x2="175.0" y1="695.0" y2="1260.0" /><line stroke="#993399" stroke-width="2.0" x1="195.0" x2="195.0" y1="1235.0" y2="1260.0" /><line stroke="#d9d98c" stroke-width="2.0" x1="215.0" x2="215.0" y1="595.0" y2="1260.0" /><line stroke="#993333" stroke-width="2.0" x1="235.0" x2="235.0" y1="1255.0" y2="1260.0" /><line stroke="#333399" stroke-width="2.0" x1="255.0" x2="255.0" y1="375.0" y2="1260.0" /><line stroke="#8cd9d9" stroke-width="2.0" x1="275.0" x2="275.0" y1="635.0" y2="1260.0" /><line stroke="#993333" stroke-width="2.0" x1="295.0" x2="295.0" y1="1135.0" y2="1260.0" /><line stroke="#8cd9d9" stroke-width="2.0" x1="335.0" x2="335.0" y1="1055.0" y2="1260.0" /><line stroke="#333399" stroke-width="2.0" x1="395.0" x2="395.0" y1="1215.0" y2="1275.0" /><line stroke="#c65353" stroke-width="2.0" x1="415.0" x2="415.0" y1="975.0" y2="1260.0" /><line stroke="#c6c653" stroke-width="2.0" x1="435.0" x2="435.0" y1="35.0" y2="1260.0" /><line stroke="#5353c6" stroke-width="2.0" x1="455.0" x2="455.0" y1="515.0" y2="1260.0" /></g><g><line stroke="white" stroke-width="6.0" x1="295.0" x2="320.0" y1="215.0" y2="215.0" /><line stroke="white" stroke-width="6.0" x1="275.0" x2="400.0" y1="255.0" y2="255.0" /><line stroke="white" stroke-width="6.0" x1="255.0" x2="380.0" y1="275.0" y2="275.0" /><line stroke="white" stroke-width="6.0" x1="235.0" x2="280.0" y1="295.0" y2="295.0" /><line stroke="white" stroke-width="6.0" x1="450.0" x2="455.0" y1="315.0" y2="315.0" /><line stroke="white" stroke-width="6.0" x1="275.0" x2="400.0" y1="335.0" y2="335.0" /><line stroke="white" stroke-width="6.0" x1="215.0" x2="240.0" y1="355.0" y2="355.0" /><line stroke="white" stroke-width="6.0" x1="195.0" x2="260.0" y1="415.0" y2="415.0" /><line stroke="white" stroke-width="6.0" x1="215.0" x2="400.0" y1="435.0" y2="435.0" /><line stroke="white" stroke-width="6.0" x1="215.0" x2="400.0" y1="495.0" y2="495.0" /><line stroke="white" stroke-width="6.0" x1="210.0" x2="355.0" y1="535.0" y2="535.0" /><line stroke="white" stroke-width="6.0" x1="210.0" x2="295.0" y1="555.0" y2="555.0" /><line stroke="white" stroke-width="6.0" x1="175.0" x2="260.0" y1="575.0" y2="575.0" /><line stroke="white" stroke-width="6.0" x1="215.0" x2="260.0" y1="595.0" y2="595.0" /><line stroke="white" stroke-width="6.0" x1="355.0" x2="360.0" y1="615.0" y2="615.0" /><line stroke="white" stroke-width="6.0" x1="190.0" x2="275.0" y1="635.0" y2="635.0" /><line stroke="white" stroke-width="6.0" x1="275.0" x2="380.0" y1="635.0" y2="635.0" /><line stroke="white" stroke-width="6.0" x1="155.0" x2="200.0" y1="655.0" y2="655.0" /><line stroke="white" stroke-width="6.0" x1="175.0" x2="260.0" y1="695.0" y2="695.0" /><line stroke="white" stroke-width="6.0" x1="135.0" x2="340.0" y1="715.0" y2="715.0" /><line stroke="white" stroke-width="6.0" x1="135.0" x2="340.0" y1="795.0" y2="795.0" /><line stroke="white" stroke-width="6.0" x1="150.0" x2="355.0" y1="835.0" y2="835.0" /><line stroke="white" stroke-width="6.0" x1="115.0" x2="120.0" y1="855.0" y2="855.0" /><line stroke="white" stroke-width="6.0" x1="150.0" x2="335.0" y1="875.0" y2="875.0" /><line stroke="white" stroke-width="6.0" x1="95.0" x2="120.0" y1="895.0" y2="895.0" /><line stroke="white" stroke-width="6.0" x1="150.0" x2="375.0" y1="915.0" y2="915.0" /><line stroke="white" stroke-width="6.0" x1="375.0" x2="400.0" y1="915.0" y2="915.0" /><line stroke="white" stroke-width="6.0" x1="150.0" x2="295.0" y1="935.0" y2="935.0" /><line stroke="white" stroke-width="6.0" x1="370.0" x2="415.0" y1="975.0" y2="975.0" /><line stroke="white" stroke-width="6.0" x1="75.0" x2="220.0" y1="995.0" y2="995.0" /><line stroke="white" stroke-width="6.0" x1="55.0" x2="320.0" y1="1015.0" y2="1015.0" /><line stroke="white" stroke-width="6.0" x1="35.0" x2="320.0" y1="1035.0" y2="1035.0" /><line stroke="white" stroke-width="6.0" x1="130.0" x2="335.0" y1="1055.0" y2="1055.0" /><line stroke="white" stroke-width="6.0" x1="335.0" x2="340.0" y1="1055.0" y2="1055.0" /><line stroke="white" stroke-width="6.0" x1="110.0" x2="115.0" y1="1075.0" y2="1075.0" /><line stroke="white" stroke-width="6.0" x1="195.0" x2="360.0" y1="1115.0" y2="1115.0" /><line stroke="white" stroke-width="6.0" x1="50.0" x2="75.0" y1="1155.0" y2="1155.0" /><line stroke="white" stroke-width="6.0" x1="75.0" x2="300.0" y1="1155.0" y2="1155.0" /><line stroke="white" stroke-width="6.0" x1="210.0" x2="395.0" y1="1215.0" y2="1215.0" /><line stroke="white" stroke-width="6.0" x1="210.0" x2="235.0" y1="1255.0" y2="1255.0" /><line stroke="white" stroke-width="6.0" x1="70.0" x2="395.0" y1="1275.0" y2="1275.0" /><line stroke="white" stroke-width="6.0" x1="395.0" x2="440.0" y1="1275.0" y2="1275.0" /></g><g><path d="M 335.0,200.0 a15.0,15.0 0 0,1 -15.0,15.0" fill="none" stroke="#c65353" stroke-width="2.0" /><line stroke="#c65353" stroke-width="2.0" x1="295.0" x2="320.0" y1="215.0" y2="215.0" /><path d="M 395.0,240.0 a15.0,15.0 0 0,1 -15.0,15.0" fill="none" stroke="#8cd98c" stroke-width="2.0" /><path d="M 415.0,240.0 a15.0,15.0 0 0,1 -15.0,15.0" fill="none" stroke="#53c653" stroke-width="2.0" /><line stroke="#53c653" stroke-width="2.0" x1="275.0" x2="400.0" y1="255.0" y2="255.0" /><path d="M 395.0,260.0 a15.0,15.0 0 0,1 -15.0,15.0" fill="none" stroke="#8cd98c" stroke-width="2.0" /><line stroke="#8cd98c" stroke-width="2.0" x1="255.0" x2="380.0" y1="275.0" y2="275.0" /><path d="M 295.0,280.0 a15.0,15.0 0 0,1 -15.0,15.0" fill="none" stroke="#8cd9d9" stroke-width="2.0" /><line stroke="#8cd9d9" stroke-width="2.0" x1="235.0" x2="280.0" y1="295.0" y2="295.0" /><path d="M 435.0,300.0 a15.0,15.0 0 0,0 15.0,15.0" fill="none" stroke="#c6c653" stroke-width="2.0" /><line stroke="#c6c653" stroke-width="2.0" x1="450.0" x2="455.0" y1="315.0" y2="315.0" /><path d="M 375.0,320.0 a15.0,15.0 0 0,1 -15.0,15.0" fill="none" stroke="#5353c6" stroke-width="2.0" /><path d="M 415.0,320.0 a15.0,15.0 0 0,1 -15.0,15.0" fill="none" stroke="#53c653" stroke-width="2.0" /><line stroke="#53c653" stroke-width="2.0" x1="275.0" x2="400.0" y1="335.0" y2="335.0" /><path d="M 255.0,340.0 a15.0,15.0 0 0,1 -15.0,15.0" fill="none" stroke="#d98c8c" stroke-width="2.0" /><line stroke="#d98c8c" stroke-width="2.0" x1="215.0" x2="240.0" y1="355.0" y2="355.0" /><path d="M 275.0,400.0 a15.0,15.0 0 0,1 -15.0,15.0" fill="none" stroke="#339933" stroke-width="2.0" /><line stroke="#339933" stroke-width="2.0" x1="195.0" x2="260.0" y1="415.0" y2="415.0" /><path d="M 415.0,420.0 a15.0,15.0 0 0,1 -15.0,15.0" fill="none" stroke="#53c653" stroke-width="2.0" /><line stroke="#53c653" stroke-width="2.0" x1="215.0" x2="400.0" y1="435.0" y2="435.0" /><path d="M 375.0,480.0 a15.0,15.0 0 0,1 -15.0,15.0" fill="none" stroke="#5353c6" stroke-width="2.0" /><path d="M 415.0,480.0 a15.0,15.0 0 0,1 -15.0,15.0" fill="none" stroke="#53c653" stroke-width="2.0" /><line stroke="#53c653" stroke-width="2.0" x1="215.0" x2="400.0" y1="495.0" y2="495.0" /><path d="M 195.0,520.0 a15.0,15.0 0 0,0 15.0,15.0" fill="none" stroke="#53c653" stroke-width="2.0" /><line stroke="#53c653" stroke-width="2.0" x1="210.0" x2="355.0" y1="535.0" y2="535.0" /><path d="M 195.0,540.0 a15.0,15.0 0 0,0 15.0,15.0" fill="none" stroke="#53c653" stroke-width="2.0" /><line stroke="#53c653" stroke-width="2.0" x1="210.0" x2="295.0" y1="555.0" y2="555.0" /><path d="M 215.0,560.0 a15.0,15.0 0 0,1 -15.0,15.0" fill="none" stroke="#53c6c6" stroke-width="2.0" /><path d="M 275.0,560.0 a15.0,15.0 0 0,1 -15.0,15.0" fill="none" stroke="#339933" stroke-width="2.0" /><line stroke="#339933" stroke-width="2.0" x1="175.0" x2="260.0" y1="575.0" y2="575.0" /><path d="M 275.0,580.0 a15.0,15.0 0 0,1 -15.0,15.0" fill="none" stroke="#339933" stroke-width="2.0" /><line stroke="#339933" stroke-width="2.0" x1="215.0" x2="260.0" y1="595.0" y2="595.0" /><path d="M 375.0,600.0 a15.0,15.0 0 0,1 -15.0,15.0" fill="none" stroke="#5353c6" stroke-width="2.0" /><line stroke="#5353c6" stroke-width="2.0" x1="355.0" x2="360.0" y1="615.0" y2="615.0" /><path d="M 175.0,620.0 a15.0,15.0 0 0,0 15.0,15.0" fill="none" stroke="#d98c8c" stroke-width="2.0" /><line stroke="#d98c8c" stroke-width="2.0" x1="190.0" x2="275.0" y1="635.0" y2="635.0" /><path d="M 395.0,620.0 a15.0,15.0 0 0,1 -15.0,15.0" fill="none" stroke="#8cd98c" stroke-width="2.0" /><line stroke="#8cd98c" stroke-width="2.0" x1="275.0" x2="380.0" y1="635.0" y2="635.0" /><path d="M 215.0,640.0 a15.0,15.0 0 0,1 -15.0,15.0" fill="none" stroke="#d9d98c" stroke-width="2.0" /><line stroke="#d9d98c" stroke-width="2.0" x1="155.0" x2="200.0" y1="655.0" y2="655.0" /><path d="M 275.0,680.0 a15.0,15.0 0 0,1 -15.0,15.0" fill="none" stroke="#8cd9d9" stroke-width="2.0" /><line stroke="#8cd9d9" stroke-width="2.0" x1="175.0" x2="260.0" y1="695.0" y2="695.0" /><path d="M 355.0,700.0 a15.0,15.0 0 0,1 -15.0,15.0" fill="none" stroke="#d98cd9" stroke-width="2.0" /><line stroke="#d98cd9" stroke-width="2.0" x1="135.0" x2="340.0" y1="715.0" y2="715.0" /><path d="M 355.0,780.0 a15.0,15.0 0 0,1 -15.0,15.0" fill="none" stroke="#d98cd9" stroke-width="2.0" /><line stroke="#d98cd9" stroke-width="2.0" x1="135.0" x2="340.0" y1="795.0" y2="795.0" /><path d="M 135.0,820.0 a15.0,15.0 0 0,0 15.0,15.0" fill="none" stroke="#993399" stroke-width="2.0" /><line stroke="#993399" stroke-width="2.0" x1="150.0" x2="355.0" y1="835.0" y2="835.0" /><path d="M 135.0,840.0 a15.0,15.0 0 0,1 -15.0,15.0" fill="none" stroke="#993399" stroke-width="2.0" /><line stroke="#993399" stroke-width="2.0" x1="115.0" x2="120.0" y1="855.0" y2="855.0" /><path d="M 135.0,860.0 a15.0,15.0 0 0,0 15.0,15.0" fill="none" stroke="#993399" stroke-width="2.0" /><line stroke="#993399" stroke-width="2.0" x1="150.0" x2="335.0" y1="875.0" y2="875.0" /><path d="M 135.0,880.0 a15.0,15.0 0 0,1 -15.0,15.0" fill="none" stroke="#993399" stroke-width="2.0" /><line stroke="#993399" stroke-width="2.0" x1="95.0" x2="120.0" y1="895.0" y2="895.0" /><path d="M 135.0,900.0 a15.0,15.0 0 0,0 15.0,15.0" fill="none" stroke="#993399" stroke-width="2.0" /><path d="M 195.0,900.0 a15.0,15.0 0 0,0 15.0,15.0" fill="none" stroke="#53c653" stroke-width="2.0" /><line stroke="#993399" stroke-width="2.0" x1="150.0" x2="375.0" y1="915.0" y2="915.0" /><path d="M 415.0,900.0 a15.0,15.0 0 0,1 -15.0,15.0" fill="none" stroke="#53c653" stroke-width="2.0" /><line stroke="#53c653" stroke-width="2.0" x1="375.0" x2="400.0" y1="915.0" y2="915.0" /><path d="M 135.0,920.0 a15.0,15.0 0 0,0 15.0,15.0" fill="none" stroke="#993399" stroke-width="2.0" /><line stroke="#993399" stroke-width="2.0" x1="150.0" x2="295.0" y1="935.0" y2="935.0" /><path d="M 355.0,960.0 a15.0,15.0 0 0,0 15.0,15.0" fill="none" stroke="#993333" stroke-width="2.0" /><line stroke="#993333" stroke-width="2.0" x1="370.0" x2="415.0" y1="975.0" y2="975.0" /><path d="M 115.0,980.0 a15.0,15.0 0 0,1 -15.0,15.0" fill="none" stroke="#c65353" stroke-width="2.0" /><path d="M 235.0,980.0 a15.0,15.0 0 0,1 -15.0,15.0" fill="none" stroke="#993333" stroke-width="2.0" /><line stroke="#993333" stroke-width="2.0" x1="75.0" x2="220.0" y1="995.0" y2="995.0" /><path d="M 115.0,1000.0 a15.0,15.0 0 0,1 -15.0,15.0" fill="none" stroke="#c65353" stroke-width="2.0" /><path d="M 235.0,1000.0 a15.0,15.0 0 0,1 -15.0,15.0" fill="none" stroke="#993333" stroke-width="2.0" /><path d="M 335.0,1000.0 a15.0,15.0 0 0,1 -15.0,15.0" fill="none" stroke="#c6c653" stroke-width="2.0" /><line stroke="#c6c653" stroke-width="2.0" x1="55.0" x2="320.0" y1="1015.0" y2="1015.0" /><path d="M 235.0,1020.0 a15.0,15.0 0 0,1 -15.0,15.0" fill="none" stroke="#993333" stroke-width="2.0" /><path d="M 335.0,1020.0 a15.0,15.0 0 0,1 -15.0,15.0" fill="none" stroke="#c6c653" stroke-width="2.0" /><line stroke="#c6c653" stroke-width="2.0" x1="35.0" x2="320.0" y1="1035.0" y2="1035.0" /><path d="M 115.0,1040.0 a15.0,15.0 0 0,0 15.0,15.0" fill="none" stroke="#c65353" stroke-width="2.0" /><line stroke="#c65353" stroke-width="2.0" x1="130.0" x2="335.0" y1="1055.0" y2="1055.0" /><path d="M 355.0,1040.0 a15.0,15.0 0 0,1 -15.0,15.0" fill="none" stroke="#993333" stroke-width="2.0" /><line stroke="#993333" stroke-width="2.0" x1="335.0" x2="340.0" y1="1055.0" y2="1055.0" /><path d="M 95.0,1060.0 a15.0,15.0 0 0,0 15.0,15.0" fill="none" stroke="#53c653" stroke-width="2.0" /><line stroke="#53c653" stroke-width="2.0" x1="110.0" x2="115.0" y1="1075.0" y2="1075.0" /><path d="M 375.0,1100.0 a15.0,15.0 0 0,1 -15.0,15.0" fill="none" stroke="#53c6c6" stroke-width="2.0" /><line stroke="#53c6c6" stroke-width="2.0" x1="195.0" x2="360.0" y1="1115.0" y2="1115.0" /><path d="M 35.0,1140.0 a15.0,15.0 0 0,0 15.0,15.0" fill="none" stroke="#8cd98c" stroke-width="2.0" /><line stroke="#8cd98c" stroke-width="2.0" x1="50.0" x2="75.0" y1="1155.0" y2="1155.0" /><path d="M 235.0,1140.0 a15.0,15.0 0 0,1 -15.0,15.0" fill="none" stroke="#993333" stroke-width="2.0" /><path d="M 315.0,1140.0 a15.0,15.0 0 0,1 -15.0,15.0" fill="none" stroke="#d98c8c" stroke-width="2.0" /><line stroke="#d98c8c" stroke-width="2.0" x1="75.0" x2="300.0" y1="1155.0" y2="1155.0" /><path d="M 195.0,1200.0 a15.0,15.0 0 0,0 15.0,15.0" fill="none" stroke="#339999" stroke-width="2.0" /><line stroke="#339999" stroke-width="2.0" x1="210.0" x2="395.0" y1="1215.0" y2="1215.0" /><path d="M 195.0,1240.0 a15.0,15.0 0 0,0 15.0,15.0" fill="none" stroke="#993399" stroke-width="2.0" /><line stroke="#993399" stroke-width="2.0" x1="210.0" x2="235.0" y1="1255.0" y2="1255.0" /><path d="M 55.0,1260.0 a15.0,15.0 0 0,0 15.0,15.0" fill="none" stroke="#d9d98c" stroke-width="2.0" /><path d="M 75.0,1260.0 a15.0,15.0 0 0,0 15.0,15.0" fill="none" stroke="#999933" stroke-width="2.0" /><path d="M 95.0,1260.0 a15.0,15.0 0 0,0 15.0,15.0" fill="none" stroke="#d98cd9" stroke-width="2.0" /><path d="M 115.0,1260.0 a15.0,15.0 0 0,0 15.0,15.0" fill="none" stroke="#8c8cd9" stroke-width="2.0" /><path d="M 135.0,1260.0 a15.0,15.0 0 0,0 15.0,15.0" fill="none" stroke="#c653c6" stroke-width="2.0" /><path d="M 155.0,1260.0 a15.0,15.0 0 0,0 15.0,15.0" fill="none" stroke="#8c8cd9" stroke-width="2.0" /><path d="M 175.0,1260.0 a15.0,15.0 0 0,0 15.0,15.0" fill="none" stroke="#d98c8c" stroke-width="2.0" /><path d="M 195.0,1260.0 a15.0,15.0 0 0,0 15.0,15.0" fill="none" stroke="#993399" stroke-width="2.0" /><path d="M 215.0,1260.0 a15.0,15.0 0 0,0 15.0,15.0" fill="none" stroke="#d9d98c" stroke-width="2.0" /><path d="M 235.0,1260.0 a15.0,15.0 0 0,0 15.0,15.0" fill="none" stroke="#993333" stroke-width="2.0" /><path d="M 255.0,1260.0 a15.0,15.0 0 0,0 15.0,15.0" fill="none" stroke="#333399" stroke-width="2.0" /><path d="M 275.0,1260.0 a15.0,15.0 0 0,0 15.0,15.0" fill="none" stroke="#8cd9d9" stroke-width="2.0" /><path d="M 295.0,1260.0 a15.0,15.0 0 0,0 15.0,15.0" fill="none" stroke="#993333" stroke-width="2.0" /><path d="M 335.0,1260.0 a15.0,15.0 0 0,0 15.0,15.0" fill="none" stroke="#8cd9d9" stroke-width="2.0" /><line stroke="#d9d98c" stroke-width="2.0" x1="70.0" x2="395.0" y1="1275.0" y2="1275.0" /><path d="M 415.0,1260.0 a15.0,15.0 0 0,1 -15.0,15.0" fill="none" stroke="#c65353" stroke-width="2.0" /><path d="M 435.0,1260.0 a15.0,15.0 0 0,1 -15.0,15.0" fill="none" stroke="#c6c653" stroke-width="2.0" /><path d="M 455.0,1260.0 a15.0,15.0 0 0,1 -15.0,15.0" fill="none" stroke="#5353c6" stroke-width="2.0" /><line stroke="#5353c6" stroke-width="2.0" x1="395.0" x2="440.0" y1="1275.0" y2="1275.0" /></g><g><circle cx="455.0" cy="15.0" fill="#c65353" id="Nread_bam_refs" r="6.0" stroke="white" stroke-width="2.0" /><text dominant-baseline="middle" font-family="sans-serif" font-size="inherit" x="475.0" y="15.0">read_bam_refs</text><circle cx="435.0" cy="35.0" fill="#c6c653" id="Ndemix_barcode_update" r="6.0" stroke="white" stroke-width="2.0" /><text dominant-baseline="middle" font-family="sans-serif" font-size="inherit" x="475.0" y="35.0">demix_barcode_update</text><circle cx="415.0" cy="55.0" fill="#53c653" id="Nfetch_alignment_reference" r="6.0" stroke="white" stroke-width="2.0" /><text dominant-baseline="middle" font-family="sans-serif" font-size="inherit" x="475.0" y="55.0">fetch_alignment_reference</text><circle cx="395.0" cy="75.0" fill="#53c6c6" id="Nrename_fastas" r="6.0" stroke="white" stroke-width="2.0" /><text dominant-baseline="middle" font-family="sans-serif" font-size="inherit" x="475.0" y="75.0">rename_fastas</text><circle cx="375.0" cy="95.0" fill="#5353c6" id="Nfetch_problematic_vcf" r="6.0" stroke="white" stroke-width="2.0" /><text dominant-baseline="middle" font-family="sans-serif" font-size="inherit" x="475.0" y="95.0">fetch_problematic_vcf</text><circle cx="355.0" cy="115.0" fill="#c653c6" id="Nfetch_alignment_annotation" r="6.0" stroke="white" stroke-width="2.0" /><text dominant-baseline="middle" font-family="sans-serif" font-size="inherit" x="475.0" y="115.0">fetch_alignment_annotation</text><circle cx="335.0" cy="135.0" fill="#c65353" id="Nfetch_reference_gb" r="6.0" stroke="white" stroke-width="2.0" /><text dominant-baseline="middle" font-family="sans-serif" font-size="inherit" x="475.0" y="135.0">fetch_reference_gb</text><circle cx="315.0" cy="155.0" fill="#d98c8c" id="Ncreate_empty_file" r="6.0" stroke="white" stroke-width="2.0" /><text dominant-baseline="middle" font-family="sans-serif" font-size="inherit" x="475.0" y="155.0">create_empty_file</text><circle cx="455.0" cy="175.0" fill="#d9d98c" id="Nfetch_mapping_references" r="6.0" stroke="white" stroke-width="2.0" /><text dominant-baseline="middle" font-family="sans-serif" font-size="inherit" x="475.0" y="175.0">fetch_mapping_references</text><circle cx="395.0" cy="195.0" fill="#8cd98c" id="Nconcat_fasta" r="6.0" stroke="white" stroke-width="2.0" /><text dominant-baseline="middle" font-family="sans-serif" font-size="inherit" x="475.0" y="195.0">concat_fasta</text><circle cx="295.0" cy="215.0" fill="#8cd9d9" id="Nfilter_genbank_features" r="6.0" stroke="white" stroke-width="2.0" /><text dominant-baseline="middle" font-family="sans-serif" font-size="inherit" x="475.0" y="215.0">filter_genbank_features</text><circle cx="455.0" cy="235.0" fill="#8c8cd9" id="Ndemix_preprocessing" r="6.0" stroke="white" stroke-width="2.0" /><text dominant-baseline="middle" font-family="sans-serif" font-size="inherit" x="475.0" y="235.0">demix_preprocessing</text><circle cx="275.0" cy="255.0" fill="#d98cd9" id="Nalign_fasta" r="6.0" stroke="white" stroke-width="2.0" /><text dominant-baseline="middle" font-family="sans-serif" font-size="inherit" x="475.0" y="255.0">align_fasta</text><circle cx="255.0" cy="275.0" fill="#d98c8c" id="Npangolin_report" r="6.0" stroke="white" stroke-width="2.0" /><text dominant-baseline="middle" font-family="sans-serif" font-size="inherit" x="475.0" y="275.0">pangolin_report</text><circle cx="235.0" cy="295.0" fill="#993333" id="Nextract_genbank_regions" r="6.0" stroke="white" stroke-width="2.0" /><text dominant-baseline="middle" font-family="sans-serif" font-size="inherit" x="475.0" y="295.0">extract_genbank_regions</text><circle cx="455.0" cy="315.0" fill="#999933" id="Ndemix" r="6.0" stroke="white" stroke-width="2.0" /><text dominant-baseline="middle" font-family="sans-serif" font-size="inherit" x="475.0" y="315.0">demix</text><circle cx="275.0" cy="335.0" fill="#339933" id="Nmask_alignment" r="6.0" stroke="white" stroke-width="2.0" /><text dominant-baseline="middle" font-family="sans-serif" font-size="inherit" x="475.0" y="335.0">mask_alignment</text><circle cx="215.0" cy="355.0" fill="#339999" id="Ndownload_context" r="6.0" stroke="white" stroke-width="2.0" /><text dominant-baseline="middle" font-family="sans-serif" font-size="inherit" x="475.0" y="355.0">download_context</text><circle cx="255.0" cy="375.0" fill="#333399" id="Nsummary_table" r="6.0" stroke="white" stroke-width="2.0" /><text dominant-baseline="middle" font-family="sans-serif" font-size="inherit" x="475.0" y="375.0">summary_table</text><circle cx="455.0" cy="395.0" fill="#993399" id="Nsummarise_demix" r="6.0" stroke="white" stroke-width="2.0" /><text dominant-baseline="middle" font-family="sans-serif" font-size="inherit" x="475.0" y="395.0">summarise_demix</text><circle cx="195.0" cy="415.0" fill="#993333" id="Nreconstruct_ancestral_sequence" r="6.0" stroke="white" stroke-width="2.0" /><text dominant-baseline="middle" font-family="sans-serif" font-size="inherit" x="475.0" y="415.0">reconstruct_ancestral_sequence</text><circle cx="215.0" cy="435.0" fill="#c65353" id="Nalign_context" r="6.0" stroke="white" stroke-width="2.0" /><text dominant-baseline="middle" font-family="sans-serif" font-size="inherit" x="475.0" y="435.0">align_context</text><circle cx="455.0" cy="455.0" fill="#c6c653" id="Ndemix_plot_data" r="6.0" stroke="white" stroke-width="2.0" /><text dominant-baseline="middle" font-family="sans-serif" font-size="inherit" x="475.0" y="455.0">demix_plot_data</text><circle cx="195.0" cy="475.0" fill="#53c653" id="Nancestor_fasta" r="6.0" stroke="white" stroke-width="2.0" /><text dominant-baseline="middle" font-family="sans-serif" font-size="inherit" x="475.0" y="475.0">ancestor_fasta</text><circle cx="215.0" cy="495.0" fill="#53c6c6" id="Nmask_context" r="6.0" stroke="white" stroke-width="2.0" /><text dominant-baseline="middle" font-family="sans-serif" font-size="inherit" x="475.0" y="495.0">mask_context</text><circle cx="455.0" cy="515.0" fill="#5353c6" id="Ndemix_plot" r="6.0" stroke="white" stroke-width="2.0" /><text dominant-baseline="middle" font-family="sans-serif" font-size="inherit" x="475.0" y="515.0">demix_plot</text><circle cx="355.0" cy="535.0" fill="#c653c6" id="Nsnps_to_ancestor" r="6.0" stroke="white" stroke-width="2.0" /><text dominant-baseline="middle" font-family="sans-serif" font-size="inherit" x="475.0" y="535.0">snps_to_ancestor</text><circle cx="295.0" cy="555.0" fill="#c65353" id="Nn_s_sites" r="6.0" stroke="white" stroke-width="2.0" /><text dominant-baseline="middle" font-family="sans-serif" font-size="inherit" x="475.0" y="555.0">n_s_sites</text><circle cx="175.0" cy="575.0" fill="#d98c8c" id="Nml_context_tree" r="6.0" stroke="white" stroke-width="2.0" /><text dominant-baseline="middle" font-family="sans-serif" font-size="inherit" x="475.0" y="575.0">ml_context_tree</text><circle cx="215.0" cy="595.0" fill="#d9d98c" id="Ndiversity_data" r="6.0" stroke="white" stroke-width="2.0" /><text dominant-baseline="middle" font-family="sans-serif" font-size="inherit" x="475.0" y="595.0">diversity_data</text><circle cx="355.0" cy="615.0" fill="#8cd98c" id="Nmask_tsv" r="6.0" stroke="white" stroke-width="2.0" /><text dominant-baseline="middle" font-family="sans-serif" font-size="inherit" x="475.0" y="615.0">mask_tsv</text><circle cx="275.0" cy="635.0" fill="#8cd9d9" id="Ncontext_phylogeny_data" r="6.0" stroke="white" stroke-width="2.0" /><text dominant-baseline="middle" font-family="sans-serif" font-size="inherit" x="475.0" y="635.0">context_phylogeny_data</text><circle cx="155.0" cy="655.0" fill="#8c8cd9" id="Ndiversity_plot" r="6.0" stroke="white" stroke-width="2.0" /><text dominant-baseline="middle" font-family="sans-serif" font-size="inherit" x="475.0" y="655.0">diversity_plot</text><circle cx="355.0" cy="675.0" fill="#d98cd9" id="Nfilter_tsv" r="6.0" stroke="white" stroke-width="2.0" /><text dominant-baseline="middle" font-family="sans-serif" font-size="inherit" x="475.0" y="675.0">filter_tsv</text><circle cx="175.0" cy="695.0" fill="#d98c8c" id="Ncontext_phylogeny_plot" r="6.0" stroke="white" stroke-width="2.0" /><text dominant-baseline="middle" font-family="sans-serif" font-size="inherit" x="475.0" y="695.0">context_phylogeny_plot</text><circle cx="135.0" cy="715.0" fill="#993333" id="Ntsv_to_vcf" r="6.0" stroke="white" stroke-width="2.0" /><text dominant-baseline="middle" font-family="sans-serif" font-size="inherit" x="475.0" y="715.0">tsv_to_vcf</text><circle cx="135.0" cy="735.0" fill="#999933" id="Nvariants_effect" r="6.0" stroke="white" stroke-width="2.0" /><text dominant-baseline="middle" font-family="sans-serif" font-size="inherit" x="475.0" y="735.0">variants_effect</text><circle cx="135.0" cy="755.0" fill="#339933" id="Nextract_vcf_fields" r="6.0" stroke="white" stroke-width="2.0" /><text dominant-baseline="middle" font-family="sans-serif" font-size="inherit" x="475.0" y="755.0">extract_vcf_fields</text><circle cx="135.0" cy="775.0" fill="#339999" id="Nformat_vcf_fields_longer" r="6.0" stroke="white" stroke-width="2.0" /><text dominant-baseline="middle" font-family="sans-serif" font-size="inherit" x="475.0" y="775.0">format_vcf_fields_longer</text><circle cx="135.0" cy="795.0" fill="#333399" id="Nmerge_annotation" r="6.0" stroke="white" stroke-width="2.0" /><text dominant-baseline="middle" font-family="sans-serif" font-size="inherit" x="475.0" y="795.0">merge_annotation</text><circle cx="135.0" cy="815.0" fill="#993399" id="Nconcat_variants" r="6.0" stroke="white" stroke-width="2.0" /><text dominant-baseline="middle" font-family="sans-serif" font-size="inherit" x="475.0" y="815.0">concat_variants</text><circle cx="355.0" cy="835.0" fill="#993333" id="Npolymorphic_sites_over_time_data" r="6.0" stroke="white" stroke-width="2.0" /><text dominant-baseline="middle" font-family="sans-serif" font-size="inherit" x="475.0" y="835.0">polymorphic_sites_over_time_data</text><circle cx="115.0" cy="855.0" fill="#c65353" id="Nnv_panel_data" r="6.0" stroke="white" stroke-width="2.0" /><text dominant-baseline="middle" font-family="sans-serif" font-size="inherit" x="475.0" y="855.0">nv_panel_data</text><circle cx="335.0" cy="875.0" fill="#c6c653" id="Nwindow_data" r="6.0" stroke="white" stroke-width="2.0" /><text dominant-baseline="middle" font-family="sans-serif" font-size="inherit" x="475.0" y="875.0">window_data</text><circle cx="95.0" cy="895.0" fill="#53c653" id="Naf_time_correlation_data" r="6.0" stroke="white" stroke-width="2.0" /><text dominant-baseline="middle" font-family="sans-serif" font-size="inherit" x="475.0" y="895.0">af_time_correlation_data</text><circle cx="375.0" cy="915.0" fill="#53c6c6" id="Nextract_afwdist_variants" r="6.0" stroke="white" stroke-width="2.0" /><text dominant-baseline="middle" font-family="sans-serif" font-size="inherit" x="475.0" y="915.0">extract_afwdist_variants</text><circle cx="295.0" cy="935.0" fill="#5353c6" id="Ncalculate_dnds" r="6.0" stroke="white" stroke-width="2.0" /><text dominant-baseline="middle" font-family="sans-serif" font-size="inherit" x="475.0" y="935.0">calculate_dnds</text><circle cx="135.0" cy="955.0" fill="#c653c6" id="Npairwise_trajectory_correlation" r="6.0" stroke="white" stroke-width="2.0" /><text dominant-baseline="middle" font-family="sans-serif" font-size="inherit" x="475.0" y="955.0">pairwise_trajectory_correlation</text><circle cx="415.0" cy="975.0" fill="#c65353" id="Npolymorphic_sites_over_time_plot" r="6.0" stroke="white" stroke-width="2.0" /><text dominant-baseline="middle" font-family="sans-serif" font-size="inherit" x="475.0" y="975.0">polymorphic_sites_over_time_plot</text><circle cx="75.0" cy="995.0" fill="#d98c8c" id="Nnv_panel_zoom_on_feature_data" r="6.0" stroke="white" stroke-width="2.0" /><text dominant-baseline="middle" font-family="sans-serif" font-size="inherit" x="475.0" y="995.0">nv_panel_zoom_on_feature_data</text><circle cx="55.0" cy="1015.0" fill="#d9d98c" id="Nnv_panel_plot" r="6.0" stroke="white" stroke-width="2.0" /><text dominant-baseline="middle" font-family="sans-serif" font-size="inherit" x="475.0" y="1015.0">nv_panel_plot</text><circle cx="35.0" cy="1035.0" fill="#8cd98c" id="Nwindow_zoom_on_feature_data" r="6.0" stroke="white" stroke-width="2.0" /><text dominant-baseline="middle" font-family="sans-serif" font-size="inherit" x="475.0" y="1035.0">window_zoom_on_feature_data</text><circle cx="335.0" cy="1055.0" fill="#8cd9d9" id="Nmerge_json_files" r="6.0" stroke="white" stroke-width="2.0" /><text dominant-baseline="middle" font-family="sans-serif" font-size="inherit" x="475.0" y="1055.0">merge_json_files</text><circle cx="115.0" cy="1075.0" fill="#8c8cd9" id="Naf_time_correlation_plot" r="6.0" stroke="white" stroke-width="2.0" /><text dominant-baseline="middle" font-family="sans-serif" font-size="inherit" x="475.0" y="1075.0">af_time_correlation_plot</text><circle cx="95.0" cy="1095.0" fill="#d98cd9" id="Naf_trajectory_panel_plot" r="6.0" stroke="white" stroke-width="2.0" /><text dominant-baseline="middle" font-family="sans-serif" font-size="inherit" x="475.0" y="1095.0">af_trajectory_panel_plot</text><circle cx="195.0" cy="1115.0" fill="#d98c8c" id="Nafwdist_weighted_distances" r="6.0" stroke="white" stroke-width="2.0" /><text dominant-baseline="middle" font-family="sans-serif" font-size="inherit" x="475.0" y="1115.0">afwdist_weighted_distances</text><circle cx="295.0" cy="1135.0" fill="#993333" id="Ndnds_plots" r="6.0" stroke="white" stroke-width="2.0" /><text dominant-baseline="middle" font-family="sans-serif" font-size="inherit" x="475.0" y="1135.0">dnds_plots</text><circle cx="75.0" cy="1155.0" fill="#999933" id="Nnv_panel_plot_S" r="6.0" stroke="white" stroke-width="2.0" /><text dominant-baseline="middle" font-family="sans-serif" font-size="inherit" x="475.0" y="1155.0">nv_panel_plot_S</text><circle cx="195.0" cy="1175.0" fill="#339933" id="Nformat_afwdist_results" r="6.0" stroke="white" stroke-width="2.0" /><text dominant-baseline="middle" font-family="sans-serif" font-size="inherit" x="475.0" y="1175.0">format_afwdist_results</text><circle cx="195.0" cy="1195.0" fill="#339999" id="Nallele_freq_tree_data" r="6.0" stroke="white" stroke-width="2.0" /><text dominant-baseline="middle" font-family="sans-serif" font-size="inherit" x="475.0" y="1195.0">allele_freq_tree_data</text><circle cx="395.0" cy="1215.0" fill="#333399" id="Nallele_freq_tree_plot" r="6.0" stroke="white" stroke-width="2.0" /><text dominant-baseline="middle" font-family="sans-serif" font-size="inherit" x="475.0" y="1215.0">allele_freq_tree_plot</text><circle cx="195.0" cy="1235.0" fill="#993399" id="Ntime_signal_data" r="6.0" stroke="white" stroke-width="2.0" /><text dominant-baseline="middle" font-family="sans-serif" font-size="inherit" x="475.0" y="1235.0">time_signal_data</text><circle cx="235.0" cy="1255.0" fill="#993333" id="Ntime_signal_plot" r="6.0" stroke="white" stroke-width="2.0" /><text dominant-baseline="middle" font-family="sans-serif" font-size="inherit" x="475.0" y="1255.0">time_signal_plot</text><circle cx="395.0" cy="1275.0" fill="#c65353" id="Nreport" r="6.0" stroke="white" stroke-width="2.0" /><text dominant-baseline="middle" font-family="sans-serif" font-size="inherit" x="475.0" y="1275.0">report</text></g></svg>